<svg width="192" height="29" viewBox="0 0 192 29" fill="none" xmlns="http://www.w3.org/2000/svg">
<g clip-path="url(#clip0_1107_3108)">
<path d="M138.535 19.4829C136.759 19.5145 135.104 19.0944 133.492 18.3918C132.574 17.992 132.985 17.5154 133.297 17.0772C133.596 16.6525 133.518 15.6518 134.628 16.2549C136.067 17.0388 137.643 17.3663 139.315 17.2104C140.882 17.0636 141.897 16.2391 142.045 14.9967C142.195 13.7272 141.553 12.8439 140.014 12.3312C139.008 11.9968 137.96 11.7777 136.949 11.4524C134.583 10.6912 133.439 9.25678 133.468 7.1605C133.496 5.00323 134.911 3.19836 137.192 2.60426C139.672 1.95821 142.045 2.33093 144.313 3.47395C144.974 3.80601 144.822 4.09289 144.539 4.6034C144.021 5.54537 143.519 5.94972 142.392 5.26527C141.46 4.70054 140.33 4.51305 139.191 4.58759C137.812 4.67795 136.885 5.38951 136.73 6.4625C136.561 7.6281 137.008 8.20638 138.537 8.70334C139.584 9.04218 140.67 9.28163 141.707 9.64305C144.168 10.4992 145.398 12.0736 145.374 14.2332C145.35 16.413 143.897 18.2495 141.574 19.0469C140.592 19.3835 139.579 19.5055 138.54 19.4806L138.535 19.4829Z" fill="white"/>
<path d="M85.6687 13.867C86.9337 15.5792 88.1964 17.2915 89.6207 19.2183C88.4532 19.2183 87.4997 19.2161 86.5461 19.2183C86.092 19.2183 85.9897 18.8592 85.8043 18.5858C84.9958 17.3841 84.2063 16.1733 83.3765 14.9851C83.1625 14.6779 82.8676 14.4001 82.5537 14.1855C82.0211 13.8218 81.6906 13.9099 81.7001 14.6214C81.7191 15.8593 81.6715 17.0995 81.7191 18.3374C81.7429 18.997 81.5788 19.3539 80.8108 19.2228C80.7727 19.2161 80.7323 19.2228 80.6919 19.2228C79.5124 19.2364 78.9227 18.6935 78.9227 17.5942C78.9227 14.2148 78.956 10.8355 78.899 7.4584C78.8847 6.58645 79.1629 6.36508 80.0356 6.41929C81.6525 6.51643 83.279 6.33346 84.8935 6.53224C87.1691 6.81235 88.4603 7.8763 88.6815 9.63374C88.9311 11.6171 88.0157 12.9295 85.8328 13.7337C85.7662 13.7585 85.7163 13.8285 85.6663 13.8692L85.6687 13.867ZM81.6929 10.133C81.6929 12.2066 81.8118 12.2993 84.028 11.9469C84.1065 11.9356 84.1826 11.9198 84.2586 11.9017C85.3905 11.6577 85.8209 11.0659 85.7662 9.97257C85.7044 8.70984 84.689 8.63981 83.7664 8.50428C81.7643 8.20836 81.6929 8.28064 81.6929 10.1307V10.133Z" fill="white"/>
<path d="M107.079 19.2072C105.166 19.2192 104.209 18.3164 104.209 16.4987C104.209 13.456 104.235 10.4132 104.19 7.37044C104.178 6.62951 104.383 6.38329 105.172 6.41943C106.713 6.49172 108.258 6.36748 109.797 6.56852C112.779 6.95705 114.652 8.78226 114.959 11.6059C115.045 12.3943 115.057 13.1759 114.966 13.9665C114.612 17.0612 112.477 19.0242 109.217 19.2027C108.506 19.2411 107.792 19.2094 107.079 19.2094V19.2072ZM111.918 13.2097C111.878 9.68583 110.584 8.30563 107.759 8.44568C107.196 8.47279 107.008 8.6264 107.015 9.16176C107.039 11.5991 107.024 14.0388 107.027 16.4784C107.027 16.7743 106.998 17.0364 107.448 17.1448C109.611 17.6643 111.561 16.4219 111.837 14.2985C111.894 13.8535 111.906 13.4017 111.92 13.2097H111.918Z" fill="white"/>
<path d="M181.213 12.7761C181.213 10.9373 181.237 9.09628 181.201 7.25752C181.189 6.64535 181.342 6.38106 182.048 6.41268C183.665 6.48497 185.291 6.33588 186.906 6.57307C189.869 7.00678 191.733 8.88168 191.956 11.7008C192.006 12.3356 192.013 12.9771 191.973 13.6119C191.764 16.9709 189.514 19.0762 185.976 19.2004C184.673 19.2456 183.365 19.1778 182.06 19.2298C181.375 19.2569 181.185 19.0423 181.199 18.4075C181.239 16.5304 181.213 14.6532 181.213 12.7761ZM184.019 12.6902C184.019 13.9258 184.038 15.1615 184.01 16.3971C183.998 16.9167 184.169 17.0974 184.747 17.129C187.498 17.2781 188.787 16.2006 188.882 13.5576C188.906 12.8867 188.898 12.2046 188.799 11.5404C188.466 9.31991 187.191 8.37343 184.823 8.43893C184.209 8.45701 183.988 8.61965 184.007 9.20697C184.045 10.3658 184.019 11.5291 184.019 12.6902Z" fill="white"/>
<path d="M55.1721 12.776C55.1721 10.9327 55.184 9.09172 55.165 7.24844C55.1602 6.72211 55.2316 6.39683 55.9235 6.42394C57.5452 6.48493 59.1717 6.36069 60.7886 6.57754C63.5755 6.94801 65.3993 8.59927 65.8535 11.2174C66.0294 12.2226 66.0366 13.2481 65.8749 14.2533C65.4897 16.6817 63.7158 19.1462 60.0753 19.2072C58.7294 19.2297 57.3788 19.1891 56.0353 19.2365C55.3647 19.2614 55.1436 19.0648 55.1579 18.4165C55.1983 16.5371 55.1721 14.6554 55.1721 12.776ZM57.9257 12.7195C57.9257 13.9552 57.9257 15.1908 57.9257 16.4264C57.9257 16.7675 57.9138 17.0544 58.425 17.1515C60.6341 17.5672 62.4341 16.4693 62.7789 14.3911C62.943 13.3927 62.9382 12.3739 62.7218 11.3732C62.2463 9.19337 61.0478 8.34853 58.708 8.43663C58.0707 8.46148 57.8995 8.6693 57.9162 9.23629C57.9519 10.3951 57.9257 11.5585 57.9257 12.7195Z" fill="white"/>
<path d="M179.392 11.5831C179.392 12.9 179.427 14.217 179.382 15.5317C179.318 17.4066 178.417 18.5631 176.553 19.1211C174.803 19.6452 173.031 19.6158 171.307 18.9969C169.745 18.4344 168.87 17.332 168.844 15.735C168.801 12.8774 168.832 10.0199 168.796 7.16237C168.789 6.54343 169.05 6.42823 169.638 6.41467C171.668 6.36723 171.668 6.34465 171.668 8.2828C171.668 10.4627 171.638 12.6448 171.683 14.8246C171.726 16.948 173.164 17.8584 175.288 17.1378C176.251 16.8102 176.524 16.0219 176.531 15.1477C176.555 12.629 176.655 10.1057 176.522 7.59157C176.448 6.19556 177.299 6.49825 178.132 6.4079C179.19 6.29495 179.508 6.63605 179.432 7.63901C179.332 8.94918 179.408 10.2684 179.408 11.5853C179.401 11.5853 179.394 11.5853 179.387 11.5853L179.392 11.5831Z" fill="white"/>
<path d="M145.562 19.2163C147.194 15.0463 148.768 11.039 150.318 7.02493C150.501 6.55055 150.78 6.43083 151.284 6.41276C153.573 6.33596 153.574 6.32014 154.337 8.35995C155.671 11.929 157.005 15.4981 158.37 19.144C158.094 19.1734 157.913 19.2095 157.732 19.2118C155.381 19.2502 155.355 19.257 154.586 17.1268C154.334 16.4265 154.009 16.0019 153.165 16.1532C153.012 16.1803 152.844 16.1803 152.691 16.1532C150.554 15.8031 148.989 16.2707 148.711 18.6245C148.658 19.0717 148.361 19.2412 147.879 19.2208C147.17 19.1915 146.457 19.2141 145.565 19.2141L145.562 19.2163ZM151.964 9.10087C151.429 10.7634 150.994 12.1301 150.546 13.4945C150.401 13.9327 150.554 14.1812 151.024 14.0773C151.826 13.8988 152.763 14.5426 153.443 13.7136C153.474 13.6752 153.421 13.5713 153.4 13.499C152.955 12.1301 152.508 10.7589 151.966 9.10087H151.964Z" fill="white"/>
<path d="M128.149 19.146C127.882 19.1866 127.768 19.2183 127.652 19.2205C125.181 19.2928 125.15 19.3041 124.33 17.0565C124.078 16.3675 123.719 16.0626 122.965 16.1687C122.772 16.1958 122.57 16.1687 122.373 16.1732C121.426 16.1958 120.344 15.9587 119.576 16.3223C118.823 16.677 118.827 17.8177 118.521 18.6197C118.335 19.1031 118.071 19.2544 117.565 19.2318C116.894 19.2002 116.224 19.225 115.572 19.225C115.339 18.8659 115.589 18.6061 115.686 18.3531C117.103 14.6914 118.556 11.0387 119.952 7.37024C120.221 6.66546 120.561 6.38535 121.391 6.4102C123.369 6.46893 123.374 6.41924 124.056 8.23541C125.409 11.8361 126.76 15.4391 128.149 19.146ZM121.74 9.10961C121.208 10.7631 120.765 12.1207 120.337 13.4829C120.28 13.6658 120.047 14.0092 120.383 14.0341C121.281 14.0996 122.19 14.077 123.091 14.0341C123.341 14.0205 123.243 13.7268 123.191 13.5642C122.746 12.1772 122.29 10.7925 121.74 9.11187V9.10961Z" fill="white"/>
<path d="M90.286 19.2252C91.9458 14.9852 93.5294 10.9508 95.0964 6.90734C95.2533 6.50299 95.522 6.4533 95.9073 6.42619C98.2518 6.26581 98.2518 6.25903 99.0532 8.39145C100.302 11.7121 101.533 15.0372 102.805 18.351C103.057 19.0061 103.062 19.3562 102.19 19.2275C102.152 19.223 102.111 19.2275 102.071 19.2275C100.085 19.2591 100.021 19.2772 99.4265 17.4384C99.1055 16.4445 98.6156 15.9611 97.5076 16.1757C97.4695 16.1825 97.4267 16.1825 97.3887 16.1757C95.251 15.821 93.7054 16.3044 93.4319 18.6515C93.382 19.0739 93.0824 19.2636 92.5925 19.2365C91.8863 19.1981 91.1753 19.2275 90.2812 19.2275L90.286 19.2252ZM96.6991 9.10979C96.1593 10.7565 95.717 12.1435 95.2486 13.5215C95.0869 13.9958 95.2771 14.1133 95.7384 14.1043C96.554 14.0884 97.3696 14.0997 98.2946 14.0997C97.7667 12.4462 97.2769 10.9192 96.6991 9.10979Z" fill="white"/>
<path d="M34.0572 10.8673C34.0572 8.38699 34.0833 5.9067 34.0405 3.4264C34.0286 2.73292 34.2308 2.53187 34.9679 2.54543C37.4218 2.5906 39.8782 2.54994 42.3321 2.57705C42.6698 2.58157 43.4378 2.32405 43.2214 3.00173C43.0217 3.62519 43.697 4.78401 42.3036 4.83145C40.8412 4.88115 39.3741 4.87211 37.9093 4.83145C37.2126 4.81112 36.8987 4.96473 36.951 5.69888C37.0319 6.85544 36.5587 8.35085 37.1579 9.08725C37.7975 9.8711 39.4478 9.24538 40.6486 9.36058C41.0528 9.39898 41.6687 9.12114 41.809 9.60229C41.9707 10.1602 41.9112 10.7995 41.828 11.3868C41.7852 11.6782 41.3643 11.5879 41.098 11.5879C40.028 11.5947 38.9579 11.6308 37.8927 11.5766C37.1698 11.5404 36.9296 11.7392 36.9486 12.4508C36.9986 14.4047 36.9296 16.3587 36.9843 18.3127C37.0057 19.0739 36.737 19.2501 35.9809 19.2388C34.0572 19.2162 34.0572 19.2501 34.0572 17.4046C34.0572 15.2247 34.0572 13.0449 34.0572 10.865V10.8673Z" fill="white"/>
<path d="M44.3074 12.8322C44.3074 10.9528 44.3407 9.07337 44.2908 7.19395C44.2717 6.47336 44.626 6.41688 45.2229 6.42366C47.401 6.44399 49.5791 6.41914 51.7572 6.44625C52.0949 6.45077 52.8225 6.17066 52.6489 6.88674C52.5015 7.49439 52.9937 8.55834 51.6716 8.57189C50.4042 8.58544 49.1368 8.59674 47.8694 8.56511C47.3178 8.55156 47.1371 8.70517 47.1085 9.25409C46.9944 11.5311 46.973 11.5311 49.4055 11.5311C49.6837 11.5311 49.9667 11.5695 50.2354 11.5243C51.2793 11.3526 51.6241 11.7299 51.5385 12.7351C51.4838 13.3811 51.3982 13.6951 50.6206 13.6319C49.7955 13.5641 48.9561 13.6545 48.1286 13.6048C47.4034 13.5618 47.099 13.7109 47.1014 14.5038C47.1085 16.9886 47.0681 16.9886 49.6457 16.9886C50.3186 16.9886 50.9987 17.0496 51.6645 16.9751C52.6775 16.8599 53.0579 17.1377 52.9961 18.1768C52.9485 18.9832 52.8035 19.2792 51.8761 19.2475C49.66 19.1753 47.4414 19.1956 45.2253 19.2408C44.4929 19.2543 44.2741 19.0555 44.2931 18.3553C44.3431 16.5143 44.3098 14.6732 44.3098 12.83L44.3074 12.8322Z" fill="white"/>
<path d="M68.0516 12.8142C68.0516 11.0093 68.0968 9.20444 68.0302 7.40182C68.0017 6.58635 68.2918 6.3966 69.1026 6.41693C71.2403 6.46889 73.3804 6.42371 75.5205 6.44404C75.8771 6.44856 76.5857 6.21815 76.3836 6.941C76.2219 7.52154 76.6785 8.53128 75.4658 8.56516C74.1984 8.60131 72.9286 8.60131 71.6636 8.56065C71.0358 8.54032 70.8694 8.73684 70.8527 9.32416C70.7909 11.5311 70.7648 11.5311 73.1141 11.5311C73.4303 11.5311 73.7561 11.574 74.0628 11.5221C75.1162 11.3436 75.2898 11.818 75.2684 12.7058C75.2518 13.4535 75.0259 13.6794 74.2602 13.6251C73.3923 13.5664 72.5149 13.6477 71.6469 13.6003C70.9978 13.5642 70.8718 13.8149 70.8527 14.3796C70.7624 16.9864 70.7434 16.9864 73.4993 16.9864C74.1342 16.9864 74.7762 17.0474 75.3992 16.9729C76.4288 16.8464 76.7688 17.1581 76.7237 18.1814C76.6856 19.0127 76.4978 19.2702 75.5942 19.2431C73.4184 19.1776 71.2356 19.1798 69.0598 19.2431C68.1943 19.2679 68.0088 18.9878 68.0326 18.2266C68.0897 16.4239 68.0516 14.6168 68.0516 12.8142Z" fill="white"/>
<path d="M162.312 11.7978C162.312 13.2616 162.34 14.7276 162.298 16.1891C162.279 16.8149 162.462 17.0521 163.151 17.0272C164.416 16.9798 165.684 17.0362 166.949 17.0046C167.557 16.9888 167.776 17.0905 167.669 17.7546C167.496 18.8456 167.082 19.3494 165.779 19.25C163.972 19.1122 162.143 19.1935 160.324 19.2274C159.703 19.2387 159.508 19.0512 159.511 18.4616C159.532 14.7073 159.532 10.953 159.511 7.19865C159.508 6.62263 159.684 6.35833 160.317 6.42158C160.631 6.45321 160.954 6.46224 161.266 6.42158C162.088 6.31316 162.367 6.60681 162.331 7.40647C162.267 8.86799 162.312 10.334 162.312 11.7978Z" fill="white"/>
<path d="M109.44 24.9379C109.197 25.3625 108.969 25.7963 108.705 26.2074C108.508 26.5169 108.446 27.0093 107.994 27.0319C107.514 27.059 107.454 26.5553 107.262 26.2503C107 25.8369 106.767 25.4077 106.42 24.8159C106.106 25.7104 106.311 26.4717 106.244 27.2058C106.218 27.495 106.28 27.8858 105.838 27.8903C105.4 27.8948 105.429 27.513 105.429 27.2171C105.424 25.9047 105.426 24.5923 105.429 23.2798C105.429 23.02 105.41 22.7174 105.757 22.6406C106.106 22.5615 106.23 22.8461 106.358 23.072C106.865 23.9575 107.364 24.8475 107.956 25.8934C108.527 24.904 109.024 24.0275 109.537 23.1601C109.683 22.9139 109.782 22.5299 110.196 22.6451C110.586 22.7512 110.51 23.1217 110.512 23.4086C110.522 24.6465 110.524 25.8821 110.512 27.12C110.51 27.4385 110.591 27.9083 110.08 27.8858C109.587 27.8632 109.706 27.3978 109.699 27.0793C109.687 26.3813 109.694 25.6833 109.694 24.983C109.609 24.9672 109.523 24.9514 109.435 24.9334L109.44 24.9379Z" fill="white"/>
<path d="M46.914 25.2429C46.9211 26.9868 46.0128 27.9807 44.3887 28.0101C42.7194 28.0395 41.7065 26.9823 41.7279 25.2362C41.7493 23.5194 42.7028 22.53 44.3364 22.5322C45.9842 22.5367 46.9068 23.5081 46.914 25.2429ZM42.5934 25.2768C42.5982 26.6164 43.2378 27.3279 44.403 27.2895C45.4849 27.2556 46.1198 26.4966 46.1079 25.2565C46.096 23.9734 45.4991 23.2867 44.3863 23.2664C43.1855 23.246 42.5934 23.9102 42.5958 25.2746L42.5934 25.2768Z" fill="white"/>
<path d="M115.877 22.4936C116.469 22.8392 117.468 22.2699 117.437 23.0222C117.411 23.6682 116.45 23.3158 115.917 23.3361C115.316 23.3587 115.087 23.5191 115.09 24.111C115.092 24.6689 115.228 24.9761 115.879 24.8858C115.996 24.8699 116.117 24.8767 116.234 24.8858C116.533 24.9061 116.98 24.8135 116.99 25.2133C117.002 25.7103 116.502 25.5905 116.174 25.6041C115.632 25.6267 115.087 25.4889 115.078 26.3473C115.071 27.1153 115.43 27.1582 116.072 27.1899C116.588 27.217 117.549 26.8262 117.534 27.5535C117.522 28.2041 116.555 27.8675 116.024 27.8811C114.272 27.9285 114.269 27.8992 114.269 26.1869C114.269 25.4008 114.269 24.6147 114.269 23.8286C114.269 23.23 114.146 22.6133 115.152 22.5884C115.608 22.5771 115.363 21.8769 115.76 21.6487C116.029 21.4929 116.162 20.9372 116.574 21.2534C117.014 21.5945 116.467 21.8001 116.293 22.0395C116.188 22.1864 116.046 22.3083 115.875 22.4913L115.877 22.4936Z" fill="white"/>
<path d="M122.364 27.8974C121.472 28.0714 121.034 27.7348 121.12 26.7025C121.206 25.6634 121.163 24.613 121.129 23.5671C121.11 22.9233 121.305 22.6387 122.054 22.6138C124.646 22.528 125.971 24.3058 124.986 26.6053C124.52 27.6919 123.567 27.902 122.361 27.8974H122.364ZM121.978 25.2206C121.978 25.5549 122.021 25.896 121.971 26.2236C121.821 27.1926 122.397 27.2582 123.158 27.1271C124 26.9826 124.321 26.4156 124.378 25.6927C124.444 24.8682 124.485 24.0121 123.552 23.5377C122.513 23.0069 121.985 23.3209 121.978 24.439C121.978 24.6988 121.978 24.9608 121.978 25.2206Z" fill="white"/>
<path d="M50.4263 25.2769C50.4263 24.9788 50.3907 24.6738 50.4335 24.3802C50.5143 23.8154 50.0839 22.9751 50.7426 22.7447C51.5534 22.4623 52.5616 22.4104 53.3487 22.9796C54.0098 23.4563 54.0169 24.1339 53.6388 24.7935C53.4533 25.1166 53.7078 25.2544 53.8314 25.4735C54.5376 26.734 53.9051 27.7866 52.3928 27.8905C51.0834 27.9824 50.4287 27.4101 50.4287 26.1737C50.4287 25.8756 50.4287 25.5751 50.4287 25.2769H50.4263ZM52.1289 25.5277C51.6937 25.5232 51.1373 25.3922 51.1967 26.2008C51.2348 26.743 51.1349 27.2648 52.0124 27.1812C52.6187 27.1247 53.2726 27.1722 53.3012 26.3816C53.3249 25.6994 52.8351 25.5006 52.1289 25.5277ZM51.8839 23.3343C51.4179 23.2597 51.1777 23.4495 51.1967 24.0142C51.2134 24.518 51.2205 24.9087 51.9363 24.8455C52.4832 24.7981 53.0348 24.7461 53.0515 24.1001C53.0681 23.4472 52.526 23.3456 51.8839 23.3343Z" fill="white"/>
<path d="M86.1556 25.218C86.1556 24.8069 86.1389 24.3935 86.1603 23.9824C86.1912 23.3612 85.875 22.5999 87.0996 22.609C88.8639 22.6225 89.6367 22.9727 89.7319 24.0366C89.7747 24.5087 89.7033 25.0192 89.2848 25.2564C88.4668 25.7218 88.6975 26.1351 89.1992 26.6298C89.3894 26.8173 89.5345 27.0455 89.6891 27.2623C89.8365 27.4679 89.8745 27.6983 89.6367 27.8564C89.3942 28.0191 89.1826 27.8813 89.0328 27.6915C88.6309 27.181 88.2457 26.6615 87.851 26.1464C87.6869 25.9318 87.5157 25.6879 87.1852 25.8257C86.9165 25.9386 87.0259 26.2097 86.9759 26.4175C86.8546 26.919 87.2898 27.8564 86.5812 27.8361C85.7323 27.8113 86.284 26.8693 86.1698 26.343C86.0914 25.9838 86.1556 25.5975 86.1556 25.2225V25.218ZM87.7131 23.3341C87.2161 23.2166 86.8927 23.4267 86.9307 24.1066C86.9569 24.6171 86.8903 25.1006 87.7012 25.0554C88.3075 25.0215 88.8687 24.9311 88.9281 24.2693C88.99 23.6142 88.5263 23.3431 87.7131 23.3363V23.3341Z" fill="white"/>
<path d="M64.4816 25.2724C64.4816 24.8974 64.4293 24.5157 64.4935 24.152C64.5839 23.646 64.1345 22.9751 64.8978 22.6634C65.6943 22.3381 67.3541 22.6882 67.7536 23.2575C68.2529 23.969 68.2814 24.7822 67.561 25.2769C66.831 25.7784 67.0426 26.106 67.4706 26.5713C67.6513 26.7678 67.8082 26.9869 67.9652 27.2015C68.1079 27.3935 68.2125 27.6217 68.0009 27.8069C67.7179 28.0577 67.492 27.8657 67.3184 27.6443C66.9189 27.1338 66.5361 26.612 66.1414 26.0992C65.9749 25.8823 65.7799 25.6745 65.4565 25.8123C65.1736 25.932 65.3163 26.2008 65.2616 26.4019C65.126 26.8966 65.5873 27.8386 64.8811 27.8069C64.1059 27.7708 64.5958 26.822 64.4935 26.2822C64.4317 25.9569 64.4816 25.6113 64.4816 25.2747V25.2724ZM66.0534 23.3388C65.428 23.2213 65.2116 23.5105 65.2473 24.143C65.2758 24.658 65.2211 25.1098 66.0177 25.0556C66.6693 25.0126 67.2423 24.8974 67.2471 24.1723C67.2518 23.5105 66.7382 23.3185 66.0534 23.341V23.3388Z" fill="white"/>
<path d="M145.215 27.3527C145.26 27.635 145.195 27.8157 144.986 27.8858C144.634 28.0032 144.511 27.7525 144.378 27.513C144.125 27.0567 144.171 26.3904 143.291 26.4129C142.468 26.4333 141.71 26.3791 141.517 27.3956C141.465 27.6689 141.305 28.0326 140.887 27.879C140.466 27.7254 140.644 27.4046 140.763 27.1222C141.317 25.803 141.862 24.4816 142.416 23.1624C142.585 22.758 142.946 22.252 143.267 22.871C144.026 24.3438 144.599 25.9024 145.217 27.3549L145.215 27.3527ZM143.046 24.2195C142.718 24.7097 142.145 25.1389 142.425 25.6246C142.57 25.8753 143.141 25.7624 143.626 25.611C143.429 25.1367 143.236 24.6781 143.046 24.2195Z" fill="white"/>
<path d="M57.6113 25.2633V24.8138C57.6113 22.4691 57.8277 22.2951 60.2864 22.6294C60.5693 22.6678 60.8832 22.6746 60.8523 23.0338C60.8285 23.3161 60.5432 23.332 60.3054 23.3365C59.9511 23.3455 59.5944 23.3636 59.2401 23.3365C58.6314 23.2913 58.4031 23.5172 58.4079 24.109C58.4126 24.6715 58.5696 24.9268 59.2092 24.8974C59.5992 24.8793 60.2792 24.6828 60.303 25.2204C60.3292 25.8123 59.6372 25.5931 59.2639 25.5773C58.5529 25.5457 58.4245 25.8552 58.4055 26.4493C58.3793 27.2196 58.8739 27.1179 59.3971 27.1812C59.9154 27.2444 60.8452 26.8175 60.8571 27.5629C60.8666 28.1773 59.944 27.8724 59.4518 27.8792C57.3331 27.9085 57.6351 28.0463 57.6113 26.1579C57.6065 25.8574 57.6113 25.5593 57.6113 25.2588V25.2633Z" fill="white"/>
<path d="M95.1178 26.4559C94.3046 26.2345 93.9788 26.6818 93.7672 27.3211C93.665 27.626 93.5532 28.0507 93.0729 27.8542C92.6615 27.687 92.8874 27.3482 92.9991 27.0771C93.5461 25.7557 94.0977 24.4364 94.6494 23.1172C94.7493 22.8755 94.8277 22.5909 95.1892 22.6225C95.4674 22.6474 95.5577 22.8778 95.6433 23.0856C96.2093 24.4387 96.7681 25.7963 97.334 27.1494C97.4553 27.4408 97.5979 27.7684 97.1675 27.8881C96.7609 28.001 96.6325 27.6509 96.5517 27.364C96.3495 26.6592 95.9715 26.2233 95.1178 26.4514V26.4559ZM95.0298 24.2106C94.842 24.6691 94.6565 25.1277 94.4639 25.5975C94.9371 25.7692 95.5197 25.8686 95.6528 25.6337C95.9239 25.157 95.4151 24.7143 95.0298 24.2106Z" fill="white"/>
<path d="M133.872 25.3311C133.894 27.1066 135.08 27.7594 136.695 26.8784C136.93 26.7497 137.163 26.4809 137.408 26.7519C137.689 27.0637 137.394 27.3121 137.151 27.4928C136.409 28.0463 135.575 28.1434 134.688 27.8769C133.28 27.4567 132.619 25.7535 133.204 24.0864C133.651 22.8124 135.104 22.1799 136.483 22.6814C136.771 22.7853 137.032 22.975 137.273 23.1625C137.496 23.3387 137.648 23.5872 137.394 23.8379C137.173 24.057 136.961 23.8944 136.785 23.7408C136.155 23.1919 135.442 23.106 134.707 23.4742C133.927 23.865 133.877 24.6014 133.875 25.3311H133.872Z" fill="white"/>
<path d="M34.0257 25.2856C34.0162 24.2578 34.2326 23.3113 35.3002 22.8053C36.1658 22.3942 37.0717 22.4077 37.9063 22.9002C38.2131 23.0809 38.7148 23.3204 38.4152 23.7586C38.0966 24.2239 37.8303 23.7315 37.5616 23.5779C36.7578 23.117 35.9731 23.1012 35.2978 23.7699C34.6701 24.3888 34.6249 26.0943 35.2336 26.7381C35.8828 27.4248 36.6889 27.4067 37.5045 27.0046C37.8184 26.851 38.1441 26.3134 38.4461 26.8578C38.6625 27.2486 38.156 27.5061 37.8255 27.6868C36.9671 28.1522 36.0659 28.1364 35.2146 27.7004C34.2135 27.1899 34.0185 26.2728 34.0304 25.2856H34.0257Z" fill="white"/>
<path d="M82.4013 24.8408C82.4013 25.2542 82.4108 25.6653 82.4013 26.0787C82.3656 27.4001 81.783 27.9875 80.5013 28.01C79.1507 28.0326 78.5111 27.4295 78.4897 26.0764C78.4754 25.139 78.4825 24.2015 78.4897 23.2641C78.4897 23.0111 78.454 22.6722 78.825 22.6474C79.2886 22.6157 79.2577 22.993 79.2625 23.2844C79.272 24.2218 79.2791 25.1593 79.2625 26.0967C79.2506 26.9077 79.681 27.2646 80.5013 27.2465C81.286 27.2262 81.6237 26.8219 81.6118 26.09C81.5952 25.1525 81.6047 24.2151 81.6118 23.2776C81.6118 22.9817 81.5952 22.6135 82.0565 22.6496C82.425 22.679 82.3917 23.0133 82.3965 23.2686C82.4084 23.7926 82.3989 24.319 82.4013 24.843V24.8408Z" fill="white"/>
<path d="M72.6382 25.5725C72.6382 25.1975 72.6144 24.8225 72.643 24.4498C72.6953 23.7766 72.6335 23.239 71.6823 23.3633C71.4112 23.3994 71.0736 23.3633 71.0665 23.0086C71.0617 22.6585 71.3803 22.6336 71.6609 22.6314C72.6073 22.6291 73.5513 22.6314 74.4977 22.6314C74.7545 22.6314 75.0232 22.6991 75.0565 22.9386C75.1041 23.2797 74.7973 23.3971 74.5048 23.3587C73.4919 23.221 73.4467 23.7925 73.4824 24.5063C73.5204 25.2517 73.5204 26.0039 73.48 26.7494C73.4586 27.1537 73.732 27.8608 73.0948 27.863C72.3386 27.863 72.7072 27.1198 72.6454 26.6929C72.593 26.3247 72.6335 25.9475 72.6335 25.5725H72.6382Z" fill="white"/>
<path d="M128.707 25.2903C128.707 24.581 128.7 23.8717 128.712 23.1646C128.717 22.8958 128.774 22.6134 129.154 22.636C129.447 22.6541 129.535 22.8936 129.537 23.1172C129.552 24.5335 129.552 25.9521 129.544 27.3685C129.544 27.6463 129.44 27.9264 129.086 27.8971C128.741 27.8677 128.705 27.5786 128.705 27.3052C128.705 26.6343 128.705 25.9612 128.705 25.2903H128.707Z" fill="white"/>
<path d="M26.2102 17.7953C23.2498 17.9083 20.8838 16.5439 18.5369 15.1366C16.1376 13.6976 13.8691 12.0464 11.2202 11.005C8.59031 9.97043 5.95327 9.77842 3.33287 11.0525C3.15453 11.1383 2.97857 11.2196 2.69085 11.0592C4.15323 9.67903 5.59421 8.31012 7.0447 6.948C9.12057 4.99855 11.2012 3.05362 13.2866 1.11095C14.8631 -0.357348 15.8737 -0.366384 17.4098 1.07255C21.4474 4.85624 25.485 8.64444 29.5202 12.4326C31.1395 13.9529 31.1776 14.9242 29.5464 16.4851C25.4945 20.3637 21.4212 24.2197 17.3337 28.0644C16.0045 29.3158 14.8179 29.3045 13.522 28.087C9.34171 24.161 5.16382 20.2327 0.997812 16.2931C-0.559684 14.8203 -0.260074 13.343 1.68501 12.3649C3.97727 11.2128 6.30757 11.3213 8.69256 11.9922C11.0609 12.6585 13.2319 13.7451 15.3648 14.8836C17.8544 16.2118 20.4368 17.3255 23.1808 18.0528C24.1486 18.3081 25.2472 18.3759 26.2126 17.7976L26.2102 17.7953Z" fill="white"/>
</g>
<defs>
<clipPath id="clip0_1107_3108">
<rect width="192" height="29" fill="white"/>
</clipPath>
</defs>
</svg>
