<svg width="163" height="43" viewBox="0 0 163 43" fill="none" xmlns="http://www.w3.org/2000/svg">
<path d="M23.3178 29.0459C23.7598 29.0459 24.1719 29.2824 24.393 29.6641C27.1652 34.4544 27.4834 35.0044 27.5238 35.0762C27.6285 35.2637 27.6839 35.4699 27.684 35.6826C27.684 35.8955 27.6291 36.1103 27.518 36.3018L24.8803 40.8594L24.4281 41.6416C24.4017 41.6843 24.3744 41.7325 24.3354 41.7715C24.3567 41.7514 24.3778 41.7297 24.393 41.7021C24.1732 42.0838 23.7597 42.3203 23.3178 42.3203H17.0688C16.6281 42.3202 16.2161 42.0826 15.9926 41.7021L12.8686 36.3027C12.6476 35.9198 12.6476 35.4465 12.8686 35.0635L15.9926 29.6641C16.2161 29.2824 16.6281 29.046 17.0688 29.0459H23.3178ZM36.1664 21.9229C36.6084 21.9229 37.0206 22.16 37.2416 22.543C40.01 27.3269 40.3291 27.8806 40.3695 27.9512C40.478 28.1387 40.5316 28.3475 40.5317 28.5615C40.5317 28.7757 40.4765 28.9892 40.3666 29.1807L37.7299 33.7354L37.2768 34.5186C37.2515 34.5614 37.2234 34.6101 37.183 34.6504C37.2045 34.629 37.2265 34.6068 37.2416 34.5791C37.0206 34.9621 36.6084 35.1992 36.1664 35.1992H29.9154C29.4748 35.1991 29.0634 34.962 28.8412 34.5791L25.7162 29.1807C25.4952 28.7976 25.4952 28.3209 25.7162 27.9404L28.8412 22.54C29.0635 22.1599 29.475 21.923 29.9154 21.9229H36.1664ZM10.7582 21.8535C11.2001 21.8536 11.6121 22.0917 11.8344 22.4746C14.6041 27.2587 14.9213 27.8123 14.9643 27.8828C15.0703 28.0717 15.1244 28.2813 15.1244 28.4941C15.1244 28.707 15.0695 28.9209 14.9584 29.1123L12.3227 33.667L11.8695 34.4512C11.8456 34.4939 11.8156 34.5421 11.7777 34.5811C11.7991 34.561 11.819 34.5393 11.8354 34.5117C11.613 34.892 11.1999 35.1299 10.7592 35.1299H4.51017C4.06818 35.1299 3.65601 34.8921 3.43497 34.5117L0.310948 29.1123C0.0887042 28.7293 0.0887845 28.2535 0.310948 27.873L3.43497 22.4736C3.65473 22.0919 4.06812 21.8535 4.51017 21.8535H10.7582ZM36.0258 7.46777C36.4677 7.46777 36.8796 7.70309 37.102 8.08594C39.8704 12.87 40.1914 13.4223 40.2318 13.4941C40.3379 13.6818 40.392 13.8913 40.392 14.1055C40.3919 14.3195 40.3354 14.5323 40.227 14.7236L37.5893 19.2793L37.1361 20.0625C37.1109 20.1053 37.0827 20.1534 37.0424 20.1924C37.0663 20.1723 37.0856 20.1494 37.102 20.123C36.8809 20.5046 36.4677 20.7412 36.0258 20.7412H29.7777C29.442 20.7411 29.1136 20.6017 28.8813 20.3574C28.8724 20.3486 28.7837 20.197 28.7748 20.1895C28.7125 20.1895 28.0624 20.1904 27.3002 20.1914L27.3012 20.1943H20.1352C20.0846 20.1943 20.0443 20.2412 20.0443 20.2979L20.0395 22.5078C20.0395 22.5657 20.0801 22.6123 20.1293 22.6123H24.1352C24.5961 22.6489 24.9574 23.0396 24.9574 23.502C24.9574 23.6405 24.9246 23.7744 24.8627 23.9004C24.852 23.9207 24.1423 25.1422 24.1342 25.1562L23.6449 25.999C23.6184 26.0469 23.5883 26.0977 23.5453 26.1367C23.5706 26.1166 23.5907 26.0931 23.6059 26.0654C23.4177 26.3929 23.0654 26.5966 22.6879 26.5967H17.6234C17.2458 26.5967 16.8927 26.393 16.7045 26.0654L14.1742 21.6904C13.9848 21.3654 13.9848 20.9579 14.1742 20.6328L16.7045 16.2568C16.8927 15.9305 17.2458 15.7295 17.6234 15.7295H22.6879C23.0654 15.7296 23.4164 15.9307 23.6059 16.2568C23.6059 16.2568 24.9988 18.5278 25.1479 18.7861H26.3061C26.7821 18.7861 27.6165 18.7813 27.9262 18.7812C27.2619 17.6334 25.5785 14.7236 25.5785 14.7236C25.4688 14.5323 25.4135 14.3195 25.4135 14.1055C25.4135 13.8913 25.4687 13.6756 25.5785 13.4854L28.7016 8.08594C28.9226 7.70306 29.3358 7.46787 29.7777 7.46777H36.0258ZM4.36368 7.2627H10.6147C11.0565 7.26277 11.4666 7.49911 11.6889 7.88184C14.4576 12.6655 14.7779 13.2179 14.8197 13.29C14.927 13.4789 14.9808 13.6841 14.9809 13.8994C14.9809 14.1148 14.9266 14.3281 14.8168 14.5195L12.1791 19.0752L11.727 19.8584C11.7143 19.8788 11.7004 19.8997 11.6859 19.9209C11.6869 19.9193 11.69 19.9186 11.6908 19.917C11.4685 20.2988 11.0577 20.5371 10.6156 20.5371H4.36564C3.92612 20.5371 3.51272 20.2988 3.29044 19.917L0.164464 14.5186C-0.0552206 14.1369 -0.0550731 13.6632 0.164464 13.2803L3.29044 7.88086C3.51273 7.49912 3.92361 7.26074 4.36564 7.26074L4.36368 7.2627ZM23.3539 0C23.796 0 24.2081 0.239611 24.4291 0.620117C27.1914 5.39477 27.5155 5.95457 27.557 6.02832C27.6644 6.21605 27.7192 6.42448 27.7192 6.63867C27.7191 6.85283 27.6633 7.06828 27.5522 7.25977L24.9164 11.8145L24.4613 12.5967C24.4361 12.6407 24.4101 12.6888 24.3686 12.7266C24.3912 12.7064 24.4118 12.6836 24.4281 12.6572C24.2071 13.039 23.795 13.2773 23.3529 13.2773H17.102C16.6601 13.2772 16.2487 13.0401 16.0277 12.6572L12.9018 7.25977C12.6807 6.87674 12.6807 6.4013 12.9018 6.01953L16.0277 0.621094C16.25 0.239464 16.6614 0.00114703 17.102 0.000976562L17.1039 0H23.3539Z" fill="#2C6953"/>
<path d="M58.2147 28.6375C57.6577 29.0344 56.5829 29.5308 55.0901 29.5308C53.0592 29.5308 49.8752 28.4586 49.8752 21.6674C49.8752 14.8763 52.9203 13.804 54.912 13.804C55.9476 13.804 56.7433 14.022 56.7433 14.022V16.5444C56.2849 16.4449 55.8681 16.4059 55.3894 16.4059C54.6329 16.4059 53.0201 16.9615 53.0201 21.6687C53.0201 26.3759 54.3134 26.9113 55.1697 26.9113C55.2101 26.9113 55.2492 26.9113 55.2694 26.8912V24.4683C55.2694 23.1781 54.8716 23.0181 54.6127 23.0181C54.4535 23.0181 54.2944 23.0181 54.1353 23.0773V20.5158C54.1353 20.5158 54.6531 20.4163 55.1507 20.4163C56.9227 20.4163 58.216 21.6876 58.216 24.8249V28.6375H58.2147Z" fill="#1D1D1F"/>
<path d="M65.6822 23.5535C66.1406 24.0902 66.7772 24.9835 67.1548 25.936C67.6133 27.0876 67.7118 28.2203 67.7118 29.3316H64.6061C64.6061 28.5177 64.5063 27.7831 64.1881 26.9881C63.89 26.2535 63.5111 25.6576 63.1928 25.3401V29.3316H60.0872V14.0005H62.5159C65.5218 14.0005 67.7711 15.5099 67.7711 18.7858C67.7711 21.7051 66.3781 23.0558 65.6809 23.5522L65.6822 23.5535ZM63.1941 16.6237V21.9256C63.9898 21.7669 64.6667 20.8534 64.6667 18.8072C64.6667 17.3772 64.1287 16.6628 63.1941 16.6225V16.6237Z" fill="#1D1D1F"/>
<path d="M73.4467 29.5319C71.4563 29.5319 69.4658 28.1422 69.4658 25.1234V14.003H72.5715V25.5807C72.5715 26.435 72.9491 26.9516 73.4467 26.9516C73.9443 26.9516 74.3422 26.435 74.3422 25.5807V14.003H77.4478V25.1234C77.4478 28.1422 75.4372 29.5319 73.4467 29.5319Z" fill="#1D1D1F"/>
<path d="M82.7241 24.884V29.3316H79.6184V14.0005H81.9675C85.1124 14.0005 87.3024 15.7871 87.3024 18.8652C87.3024 23.4124 83.54 24.6836 82.7241 24.8827V24.884ZM82.7241 16.6237V21.9256C83.1623 21.8462 84.1967 21.0323 84.1967 18.8274C84.1967 17.3381 83.7193 16.6426 82.7241 16.6237Z" fill="#1D1D1F"/>
<path d="M92.9764 29.5319C90.6866 29.5319 88.7366 27.9633 88.7366 21.6686C88.7366 15.3738 90.6879 13.8052 92.9764 13.8052C95.2649 13.8052 97.2162 15.3738 97.2162 21.6686C97.2162 27.9633 95.2649 29.5319 92.9764 29.5319ZM92.9764 16.3856C92.3398 16.3856 91.8422 17.5372 91.8422 21.6673C91.8422 25.7974 92.3398 26.949 92.9764 26.949C93.6129 26.949 94.1105 25.7974 94.1105 21.6673C94.1105 17.5372 93.6129 16.3856 92.9764 16.3856Z" fill="#1D1D1F"/>
<path d="M111.649 28.6374C111.092 29.0343 110.017 29.5307 108.524 29.5307C106.493 29.5307 103.309 28.4585 103.309 21.6673C103.309 14.8762 106.354 13.804 108.346 13.804C109.381 13.804 110.177 14.0219 110.177 14.0219V16.5444C109.719 16.4448 109.302 16.4058 108.823 16.4058C108.067 16.4058 106.454 16.9614 106.454 21.6686C106.454 26.3758 107.747 26.9113 108.603 26.9113C108.644 26.9113 108.683 26.9113 108.703 26.8911V24.4682C108.703 23.178 108.305 23.018 108.047 23.018C107.887 23.018 107.728 23.018 107.569 23.0772V20.5157C107.569 20.5157 108.087 20.4162 108.585 20.4162C110.357 20.4162 111.65 21.6875 111.65 24.8248V28.6374H111.649Z" fill="#1D1D1F"/>
<path d="M118.797 29.3329V24.6458H117.025V29.3329H113.92V24.6458H113.124V22.0642H113.92V18.2113C113.92 15.1924 115.871 13.8027 117.901 13.8027C119.93 13.8027 121.902 15.1924 121.902 18.2113V29.3316H118.796L118.797 29.3329ZM118.797 17.735C118.797 16.8215 118.459 16.3843 117.902 16.3843C117.345 16.3843 117.027 16.8215 117.027 17.735V22.0642H118.799V17.735H118.797Z" fill="#1D1D1F"/>
<path d="M133.842 29.3329V17.7552C133.842 16.8215 133.464 16.3843 132.967 16.3843C132.469 16.3843 132.071 16.8215 132.071 17.7552V29.3329H128.965V17.7552C128.965 16.8215 128.568 16.3843 128.07 16.3843C127.572 16.3843 127.195 16.8215 127.195 17.7552V29.3329H124.089V18.2125C124.089 15.3928 125.702 13.804 128.129 13.804C129.125 13.804 129.961 14.2412 130.518 14.6771C131.075 14.2399 131.911 13.804 132.906 13.804C135.335 13.804 136.946 15.3928 136.946 18.2125V29.3329H133.841H133.842Z" fill="#1D1D1F"/>
<path d="M148.898 29.3329V17.7552C148.898 16.8215 148.521 16.3843 148.023 16.3843C147.525 16.3843 147.128 16.8215 147.128 17.7552V29.3329H144.022V17.7552C144.022 16.8215 143.624 16.3843 143.126 16.3843C142.629 16.3843 142.251 16.8215 142.251 17.7552V29.3329H139.146V18.2125C139.146 15.3928 140.758 13.804 143.186 13.804C144.181 13.804 145.017 14.2412 145.574 14.6771C146.131 14.2399 146.967 13.804 147.962 13.804C150.391 13.804 152.003 15.3928 152.003 18.2125V29.3329H148.897H148.898Z" fill="#1D1D1F"/>
<path d="M159.24 29.3329V24.6458H157.468V29.3329H154.363V24.6458H153.567V22.0642H154.363V18.2113C154.363 15.1924 156.314 13.8027 158.344 13.8027C160.373 13.8027 162.345 15.1924 162.345 18.2113V29.3316H159.239L159.24 29.3329ZM159.24 17.735C159.24 16.8215 158.902 16.3843 158.345 16.3843C157.788 16.3843 157.47 16.8215 157.47 17.735V22.0642H159.242V17.735H159.24Z" fill="#1D1D1F"/>
<path d="M49.9097 34.1797C50.3075 34.0827 50.8102 34.0386 51.2939 34.0386C52.0353 34.0386 52.6566 34.1683 53.0861 34.5652C53.4826 34.9508 53.6329 35.4308 53.6329 36.0293C53.6329 36.8659 53.225 37.5198 52.4963 37.8487V37.8701C53.0014 38.0528 53.2679 38.5341 53.4094 39.3896C53.5698 40.2678 53.7415 41.0389 53.8603 41.2846H52.6693C52.5733 41.0792 52.4217 40.3749 52.2929 39.5282C52.154 38.5958 51.885 38.2884 51.3166 38.2884H51.0489V41.2846H49.9109V34.1784L49.9097 34.1797ZM51.0476 37.4089H51.3469C52.034 37.4089 52.4621 36.8722 52.4621 36.1351C52.4621 35.3981 52.183 34.9495 51.4316 34.9369C51.2926 34.9369 51.1423 34.9495 51.0463 34.9785V37.4077L51.0476 37.4089Z" fill="#1D1D1F"/>
<path d="M58.8693 38.0001H57.1529V40.2907H59.1055V41.2861H56.0049V34.0703H58.9754V35.0657H57.1517V37.0488H58.8681V38.0001H58.8693Z" fill="#1D1D1F"/>
<path d="M61.3811 34.1799C61.7145 34.0942 62.1755 34.0388 62.6693 34.0388C63.5054 34.0388 64.1079 34.2442 64.536 34.6385C65.1258 35.1602 65.4921 36.1051 65.4921 37.549C65.4921 39.1026 65.1056 40.0639 64.5474 40.5981C64.0662 41.0933 63.3678 41.3377 62.4344 41.3377C62.0379 41.3377 61.64 41.2961 61.3824 41.2621V34.1799H61.3811ZM62.5178 40.3764C62.615 40.3953 62.7224 40.3953 62.7982 40.3953C63.5812 40.3953 64.31 39.7313 64.31 37.5364C64.31 35.9023 63.8376 34.9598 62.8512 34.9598C62.7325 34.9598 62.615 34.9674 62.5178 34.9913V40.3751V40.3764Z" fill="#1D1D1F"/>
<path d="M69.8626 34.1799C70.1948 34.0942 70.657 34.0388 71.1508 34.0388C71.9844 34.0388 72.5868 34.2442 73.0137 34.6385C73.6061 35.1602 73.9698 36.1051 73.9698 37.549C73.9698 39.1026 73.5833 40.0639 73.0264 40.5981C72.5452 41.0933 71.848 41.3377 70.9109 41.3377C70.5168 41.3377 70.119 41.2961 69.8613 41.2621V34.1799H69.8626ZM70.9993 40.3764C71.0978 40.3953 71.2026 40.3953 71.2784 40.3953C72.0614 40.3953 72.7902 39.7313 72.7902 37.5364C72.7902 35.9023 72.3204 34.9598 71.3327 34.9598C71.2127 34.9598 71.0978 34.9674 71.0005 34.9913V40.3751L70.9993 40.3764Z" fill="#1D1D1F"/>
<path d="M79.1123 38.0001H77.3959V40.2907H79.3472V41.2861H76.2466V34.0703H79.2171V35.0657H77.3959V37.0488H79.1123V38.0001Z" fill="#1D1D1F"/>
<path d="M84.4989 40.0639C84.7653 40.2252 85.2377 40.3537 85.6115 40.3537C86.3201 40.3537 86.7065 39.9366 86.7065 39.3457C86.7065 38.7548 86.3542 38.436 85.7631 38.0303C84.9586 37.5175 84.4016 36.7981 84.4016 36.0157C84.4016 34.8931 85.1644 34.0086 86.5146 34.0086C86.9768 34.0086 87.4075 34.1446 87.6007 34.2643L87.386 35.2471C87.1928 35.1173 86.8821 35.0001 86.4956 35.0001C85.8376 35.0001 85.5294 35.4374 85.5294 35.8783C85.5294 36.4352 85.8174 36.691 86.5562 37.161C87.4681 37.7607 87.8356 38.4562 87.8356 39.2298C87.8356 40.5225 86.9137 41.3453 85.6128 41.3453C85.0672 41.3453 84.5317 41.1966 84.3069 41.0504L84.5001 40.0626L84.4989 40.0639Z" fill="#1D1D1F"/>
<path d="M91.0841 39.3999L90.7002 41.2861H89.585L91.194 34.0703H92.534L94.0256 41.2861H92.9104L92.5214 39.3999H91.0841ZM92.4077 38.5116L92.1046 36.8548C92.0212 36.3836 91.924 35.7208 91.8381 35.2156H91.804C91.7308 35.7208 91.6234 36.4012 91.5375 36.8548L91.2167 38.5116H92.4077Z" fill="#1D1D1F"/>
<path d="M96.2178 34.0703H97.3646V40.3222H99.2969V41.2861H96.2178V34.0703Z" fill="#1D1D1F"/>
<path d="M102.312 34.0703V38.8228C102.312 39.9908 102.676 40.365 103.138 40.365C103.63 40.365 103.962 40.0034 103.962 38.8228V34.0703H105.111V38.6301C105.111 40.491 104.382 41.3717 103.128 41.3717C101.808 41.3717 101.164 40.4809 101.164 38.683V34.0703H102.311H102.312Z" fill="#1D1D1F"/>
<path d="M107.698 34.1799C108.03 34.0942 108.489 34.0388 108.983 34.0388C109.819 34.0388 110.421 34.2442 110.851 34.6385C111.441 35.1602 111.805 36.1051 111.805 37.549C111.805 39.1026 111.418 40.0639 110.864 40.5981C110.38 41.0933 109.68 41.3377 108.748 41.3377C108.349 41.3377 107.956 41.2961 107.696 41.2621V34.1799H107.698ZM108.835 40.3764C108.931 40.3953 109.039 40.3953 109.115 40.3953C109.898 40.3953 110.628 39.7313 110.628 37.5364C110.628 35.9023 110.155 34.9598 109.168 34.9598C109.05 34.9598 108.93 34.9674 108.835 34.9913V40.3751V40.3764Z" fill="#1D1D1F"/>
</svg>
