<svg preserveAspectRatio="none" width="100%" height="100%" overflow="visible" style="display: block;" viewBox="0 0 192 82" fill="none" xmlns="http://www.w3.org/2000/svg">
<g id="Capa 1">
<path id="Vector" d="M93.0969 72.6665C92.9288 76.1443 91.089 77.1648 88.9129 77.1648C86.5686 77.1648 85.2729 75.8966 85.2729 74.0239C85.2729 72.1513 86.5686 70.8038 88.9129 70.8038H93.0969V72.6665ZM88.7052 57.6556C86.3214 57.6556 83.1067 57.8241 81.1779 57.9925V63.7194C83.7298 63.551 87.6963 63.3826 89.5756 63.3826C91.999 63.3826 93.087 64.5715 93.087 66.9396V67.0288H88.9524C82.81 67.0288 78.6259 69.2779 78.6259 74.4103C78.6259 79.1167 81.9692 81.8712 86.905 81.8712C90.7922 81.8712 93.2156 80.0877 94.2146 76.8279V81.2767H99.5262V67.0288C99.5262 60.5884 95.728 57.6556 88.7052 57.6556Z" fill="var(--fill-0, white)"/>
<path id="Vector_2" d="M104.096 57.5764V58.26H101.425V63.224H104.096V81.2866H110.328V63.224H115.135V58.26H110.328V57.1602C110.328 55.6344 111.168 54.7426 112.672 54.7426H115.224V49.6498H112.969C107.113 49.6498 104.106 52.2359 104.106 57.5764" fill="var(--fill-0, white)"/>
<path id="Vector_3" d="M122.899 55.7533C125.402 55.7533 126.579 54.267 126.579 52.2359C126.579 50.2047 125.412 48.6788 122.899 48.6788C120.387 48.6788 119.22 50.1651 119.22 52.2359C119.22 54.3067 120.387 55.7533 122.899 55.7533Z" fill="var(--fill-0, white)"/>
<path id="Vector_4" d="M117.588 63.0457H120.308V81.2767H126.994V58.042H117.588V63.0457Z" fill="var(--fill-0, white)"/>
<path id="Vector_5" d="M135.451 65.711V58.042H130.14V81.2767H136.826V69.4463C136.826 65.711 138.874 63.5906 142.593 63.5906H144.265V57.7448H143.384C138.745 57.7448 136.025 60.6281 135.442 65.711" fill="var(--fill-0, white)"/>
<path id="Vector_6" d="M161.822 71.6955C161.822 74.2815 160.15 75.9362 157.766 75.9362C155.382 75.9362 153.919 74.3707 153.919 71.8639V58.042H147.232V71.5271C147.232 78.5619 150.199 82 155.462 82H155.758C159.685 82 162.237 80.0085 163.197 75.9362V81.2767H168.508V58.042H161.822V71.6955Z" fill="var(--fill-0, white)"/>
<path id="Vector_7" d="M183.098 66.8999L181.298 66.7315C178.914 66.4739 177.915 65.8398 177.915 64.522C177.915 63.2042 179.211 62.3125 181.298 62.3125C183.889 62.3125 185.224 63.5411 185.432 65.0273H191.367C191.159 60.0633 187.272 57.3584 181.377 57.3584C175.857 57.3584 171.891 59.9048 171.891 64.8192C171.891 68.8023 174.69 71.4379 180.17 72.0225L181.97 72.1909C184.977 72.5278 185.986 73.3303 185.986 74.6878C185.986 76.2533 184.235 77.0657 181.931 77.0657C178.835 77.0657 177.381 75.7083 177.163 74.2221H171.228C171.436 79.1365 175.323 81.9802 181.802 81.9802C188.281 81.9802 192 79.0573 192 74.3905C192 70.1498 188.696 67.5242 183.098 66.89" fill="var(--fill-0, white)"/>
<path id="Vector_8" d="M57.508 63.3825H69.9117L57.508 75.9758V81.5739H76.341V76.174H64.8375L76.341 64.5022V57.9826H57.508V63.3825Z" fill="var(--fill-0, white)"/>
<path id="Vector_9" d="M50.2379 71.3487L40.1883 81.5343L0 40.7721L7.53717 33.123H27.6264L20.0991 40.7721L30.4652 51.2946L40.1883 61.1532L50.2379 71.3487Z" fill="var(--fill-0, white)"/>
<path id="Vector_10" d="M30.1388 10.1955L40.1883 0L80.3767 40.7721L72.8395 48.4113H52.7404L60.2776 40.7721L49.9016 30.2397L40.1883 20.3811L30.1388 10.1955Z" fill="var(--fill-0, white)"/>
<path id="Vector_11" d="M55.2528 40.7721L40.1883 56.0604L25.114 40.7721L32.6512 33.123L40.1883 40.7721L47.7255 33.123L55.2528 40.7721Z" fill="var(--fill-0, #459CDB)"/>
</g>
</svg>
